<svg width="20" height="24" viewBox="0 0 20 24" fill="none" xmlns="http://www.w3.org/2000/svg">
<mask id="mask0_167_6392" style="mask-type:alpha" maskUnits="userSpaceOnUse" x="0" y="0" width="20" height="24">
<rect width="20" height="24" fill="#D9D9D9"/>
</mask>
<g mask="url(#mask0_167_6392)">
<path d="M4.375 17.625H11.875V16.375H4.375V17.625ZM4.375 12.625H15.625V11.375H4.375V12.625ZM4.375 7.625H15.625V6.375H4.375V7.625ZM2.01937 22C1.44396 22 0.963542 21.8073 0.578125 21.4219C0.192708 21.0365 0 20.556 0 19.9806V4.01937C0 3.44396 0.192708 2.96354 0.578125 2.57812C0.963542 2.19271 1.44396 2 2.01937 2H17.9806C18.556 2 19.0365 2.19271 19.4219 2.57812C19.8073 2.96354 20 3.44396 20 4.01937V19.9806C20 20.556 19.8073 21.0365 19.4219 21.4219C19.0365 21.8073 18.556 22 17.9806 22H2.01937ZM2.01937 20.75H17.9806C18.1731 20.75 18.3495 20.6699 18.5097 20.5097C18.6699 20.3495 18.75 20.1731 18.75 19.9806V4.01937C18.75 3.82687 18.6699 3.65052 18.5097 3.49031C18.3495 3.3301 18.1731 3.25 17.9806 3.25H2.01937C1.82687 3.25 1.65052 3.3301 1.49031 3.49031C1.3301 3.65052 1.25 3.82687 1.25 4.01937V19.9806C1.25 20.1731 1.3301 20.3495 1.49031 20.5097C1.65052 20.6699 1.82687 20.75 2.01937 20.75Z" fill="white"/>
</g>
</svg>
