<svg width="20" height="20" viewBox="0 0 20 20" fill="none" xmlns="http://www.w3.org/2000/svg">
<mask id="mask0_106_6947" style="mask-type:alpha" maskUnits="userSpaceOnUse" x="0" y="0" width="20" height="20">
<rect width="20" height="20" fill="#D9D9D9"/>
</mask>
<g mask="url(#mask0_106_6947)">
<path d="M1.41406 13.4854H8.48535C8.51296 13.4856 8.535 13.5075 8.53516 13.5352V18.5859C8.53516 18.6137 8.51305 18.6365 8.48535 18.6367H1.41406C1.38625 18.6366 1.36328 18.6138 1.36328 18.5859V13.5352C1.36343 13.5075 1.38634 13.4854 1.41406 13.4854ZM11.5156 9.44434H18.5859C18.6138 9.44434 18.6367 9.46722 18.6367 9.49512V18.5859C18.6367 18.6138 18.6138 18.6367 18.5859 18.6367H11.5156C11.4877 18.6367 11.4648 18.6138 11.4648 18.5859V9.49512C11.4648 9.46722 11.4877 9.44434 11.5156 9.44434ZM1.41406 1.36328H8.48535C8.513 1.3635 8.53507 1.38638 8.53516 1.41406V10.5049C8.53516 10.5326 8.51305 10.5554 8.48535 10.5557H1.41406C1.38625 10.5556 1.36328 10.5327 1.36328 10.5049V1.41406C1.36337 1.3863 1.3863 1.36337 1.41406 1.36328ZM11.5156 1.36328H18.5859C18.6138 1.36328 18.6366 1.38625 18.6367 1.41406V6.46484C18.6367 6.49269 18.6138 6.51562 18.5859 6.51562H11.5156C11.4878 6.51562 11.4649 6.49269 11.4648 6.46484V1.41406C11.4649 1.38625 11.4878 1.36328 11.5156 1.36328Z" stroke="white" stroke-width="0.909091"/>
</g>
</svg>
