<svg width="18" height="18" viewBox="0 0 18 18" fill="none" xmlns="http://www.w3.org/2000/svg">
<g clip-path="url(#clip0_14524_83442)">
<path d="M3 5.25H5.25C5.44891 5.25 5.63968 5.17098 5.78033 5.03033C5.92098 4.88968 6 4.69891 6 4.5V3.75C6 3.35218 6.15804 2.97064 6.43934 2.68934C6.72064 2.40804 7.10218 2.25 7.5 2.25C7.89782 2.25 8.27936 2.40804 8.56066 2.68934C8.84196 2.97064 9 3.35218 9 3.75V4.5C9 4.69891 9.07902 4.88968 9.21967 5.03033C9.36032 5.17098 9.55109 5.25 9.75 5.25H12C12.1989 5.25 12.3897 5.32902 12.5303 5.46967C12.671 5.61032 12.75 5.80109 12.75 6V8.25C12.75 8.44891 12.829 8.63968 12.9697 8.78033C13.1103 8.92098 13.3011 9 13.5 9H14.25C14.6478 9 15.0294 9.15804 15.3107 9.43934C15.592 9.72064 15.75 10.1022 15.75 10.5C15.75 10.8978 15.592 11.2794 15.3107 11.5607C15.0294 11.842 14.6478 12 14.25 12H13.5C13.3011 12 13.1103 12.079 12.9697 12.2197C12.829 12.3603 12.75 12.5511 12.75 12.75V15C12.75 15.1989 12.671 15.3897 12.5303 15.5303C12.3897 15.671 12.1989 15.75 12 15.75H9.75C9.55109 15.75 9.36032 15.671 9.21967 15.5303C9.07902 15.3897 9 15.1989 9 15V14.25C9 13.8522 8.84196 13.4706 8.56066 13.1893C8.27936 12.908 7.89782 12.75 7.5 12.75C7.10218 12.75 6.72064 12.908 6.43934 13.1893C6.15804 13.4706 6 13.8522 6 14.25V15C6 15.1989 5.92098 15.3897 5.78033 15.5303C5.63968 15.671 5.44891 15.75 5.25 15.75H3C2.80109 15.75 2.61032 15.671 2.46967 15.5303C2.32902 15.3897 2.25 15.1989 2.25 15V12.75C2.25 12.5511 2.32902 12.3603 2.46967 12.2197C2.61032 12.079 2.80109 12 3 12H3.75C4.14782 12 4.52936 11.842 4.81066 11.5607C5.09196 11.2794 5.25 10.8978 5.25 10.5C5.25 10.1022 5.09196 9.72064 4.81066 9.43934C4.52936 9.15804 4.14782 9 3.75 9H3C2.80109 9 2.61032 8.92098 2.46967 8.78033C2.32902 8.63968 2.25 8.44891 2.25 8.25V6C2.25 5.80109 2.32902 5.61032 2.46967 5.46967C2.61032 5.32902 2.80109 5.25 3 5.25Z" stroke="white" stroke-width="1.33" stroke-linecap="round" stroke-linejoin="round"/>
</g>
<defs>
<clipPath id="clip0_14524_83442">
<rect width="18" height="18" fill="white"/>
</clipPath>
</defs>
</svg>
